<?xml version="1.0" standalone="no"?>
<!DOCTYPE svg PUBLIC "-//W3C//DTD SVG 20010904//EN"
 "http://www.w3.org/TR/2001/REC-SVG-20010904/DTD/svg10.dtd">
<svg version="1.0" xmlns="http://www.w3.org/2000/svg"
 width="214.000000pt" height="214.000000pt" viewBox="0 0 214.000000 214.000000"
 preserveAspectRatio="xMidYMid meet">
<metadata>
Created by potrace 1.11, written by Peter Selinger 2001-2013
</metadata>
<g transform="translate(0.000000,214.000000) scale(0.100000,-0.100000)"
fill="#000000" stroke="none">
<path d="M0 1636 c0 -394 3 -505 13 -509 9 -4 9 -7 0 -18 -10 -10 -13 -136
-13 -561 l0 -548 996 0 996 0 -3 48 c-3 44 -2 47 23 50 14 2 34 12 44 23 10
11 30 19 51 19 l33 0 0 180 0 180 -65 0 -65 0 0 129 c0 94 3 131 13 135 10 5
10 7 0 12 -18 8 -18 154 -1 154 9 0 9 3 0 12 -7 7 -12 38 -12 70 l0 58 65 0
65 0 0 535 0 535 -770 0 -770 0 0 -33 c0 -56 -22 -67 -136 -67 -114 0 -144 15
-144 70 l0 30 -160 0 -160 0 0 -504z m250 359 c0 -61 -4 -85 -12 -86 -10 0
-10 -2 0 -6 14 -6 16 -53 2 -53 -6 0 -13 8 -17 18 -3 9 -15 27 -26 39 -18 21
-19 23 -3 29 14 5 12 10 -14 25 -48 30 -85 25 -116 -16 -14 -19 -30 -35 -35
-35 -5 0 -9 38 -9 85 l0 85 115 0 115 0 0 -85z m-129 -117 c6 -67 18 -88 50
-88 33 0 48 -23 29 -45 -24 -30 -100 -5 -100 32 0 7 -4 13 -10 13 -5 0 -10 9
-10 19 0 11 -4 23 -10 26 -5 3 -10 17 -10 31 0 20 5 24 30 24 17 0 30 -6 31
-12z m129 -137 c0 -5 -6 -12 -12 -14 -10 -4 -10 -8 0 -15 13 -8 13 -83 2 -272
0 -3 -47 -5 -105 -5 -58 0 -105 2 -105 5 -11 235 -11 270 -1 270 6 0 11 -4 11
-8 0 -5 9 -18 20 -30 30 -32 95 -30 135 3 17 14 22 22 13 19 -24 -8 -23 1 4
31 22 26 38 32 38 16z m-165 -461 c10 -11 15 -23 10 -28 -4 -4 -10 -1 -12 6
-6 16 -33 16 -33 -1 0 -7 5 -18 12 -25 9 -9 9 -12 -1 -12 -29 0 -54 53 -34 73
12 13 40 7 58 -13z m1675 -81 c0 -39 4 -69 10 -69 6 0 10 -27 10 -61 0 -56 -2
-61 -20 -56 -13 3 -20 0 -20 -10 0 -8 -8 -13 -17 -12 -10 2 -28 -2 -40 -9 -22
-12 -23 -12 -23 37 0 27 -4 53 -10 56 -5 3 -10 40 -10 81 0 67 2 74 20 74 11
0 20 5 20 10 0 6 7 10 16 10 8 0 22 7 31 15 24 25 33 8 33 -66z m-1550 -9 c0
-14 7 -20 23 -21 l22 0 -22 -11 c-17 -8 -25 -7 -37 5 -20 20 -21 47 -1 47 8 0
15 -9 15 -20z m26 -135 c14 -13 14 -17 0 -30 -8 -8 -24 -15 -35 -15 -12 0 -21
-5 -21 -12 0 -6 -2 -9 -5 -6 -11 11 8 38 26 38 10 0 19 5 19 10 0 6 -7 10 -15
10 -8 0 -15 5 -15 10 0 15 29 12 46 -5z m1701 -137 c-3 -8 -6 -5 -6 6 -1 11 2
17 5 13 3 -3 4 -12 1 -19z m-1820 -13 c-4 -8 -14 -15 -23 -15 -16 0 -16 2 1
20 20 22 31 20 22 -5z m1603 -60 c0 -13 -4 -27 -10 -30 -5 -3 -10 -15 -10 -25
0 -25 -32 -80 -47 -80 -7 0 -13 7 -13 15 0 8 5 15 10 15 6 0 10 9 10 20 0 11
5 20 10 20 6 0 10 8 10 17 0 27 23 82 32 77 4 -3 8 -16 8 -29z m40 -24 c0 -15
-3 -31 -6 -34 -13 -13 -20 3 -16 37 5 41 22 39 22 -3z m131 -21 c5 0 9 -23 9
-51 0 -45 -2 -49 -15 -35 -8 8 -15 32 -15 55 0 23 -4 41 -10 41 -14 0 -12 23
3 39 10 10 13 6 15 -18 2 -17 7 -31 13 -31z m32 24 c-4 -10 -9 -12 -15 -6 -12
12 -1 35 12 27 5 -3 6 -13 3 -21z m-1336 -16 c-3 -7 -5 -2 -5 12 0 14 2 19 5
13 2 -7 2 -19 0 -25z m-109 5 c2 -9 -7 -13 -27 -13 -30 0 -46 11 -34 24 11 11
56 2 61 -11z m-45 -40 c-72 -2 -194 -2 -270 0 -76 1 -16 3 132 3 149 0 211 -2
138 -3z m62 -122 c5 -32 3 -43 -14 -60 -26 -26 -26 -26 -51 -1 -21 21 -24 39
-14 78 5 17 14 22 39 22 31 0 34 -3 40 -39z m-355 19 c0 -5 -7 -10 -15 -10 -8
0 -15 5 -15 10 0 6 7 10 15 10 8 0 15 -4 15 -10z m75 0 c3 -5 -1 -10 -9 -10
-9 0 -16 5 -16 10 0 6 4 10 9 10 6 0 13 -4 16 -10z m-118 -57 c-3 -10 -5 -4
-5 12 0 17 2 24 5 18 2 -7 2 -21 0 -30z m83 12 c0 -16 -6 -25 -15 -25 -9 0
-15 9 -15 25 0 16 6 25 15 25 9 0 15 -9 15 -25z m57 -12 c-3 -10 -5 -4 -5 12
0 17 2 24 5 18 2 -7 2 -21 0 -30z m-97 -43 c0 -11 5 -20 10 -20 6 0 10 -12 9
-27 0 -28 -1 -28 -11 -5 -6 12 -19 22 -30 22 -12 0 -18 -8 -19 -22 -1 -18 -2
-19 -6 -5 -6 23 18 77 34 77 7 0 13 -9 13 -20z m77 14 c-3 -3 -12 -4 -19 -1
-8 3 -5 6 6 6 11 1 17 -2 13 -5z m523 -19 c0 -9 -6 -12 -16 -8 -13 5 -13 7 -2
14 17 11 18 11 18 -6z m65 -5 c-3 -5 -13 -6 -21 -3 -12 4 -13 8 -3 14 15 9 32
2 24 -11z m60 0 c-3 -5 -13 -6 -21 -3 -12 4 -13 8 -3 14 15 9 32 2 24 -11z
m65 1 c0 -21 -26 -36 -36 -20 -6 11 13 39 27 39 5 0 9 -9 9 -19z m60 -5 c0
-16 -5 -23 -15 -22 -23 3 -29 14 -15 31 18 22 30 18 30 -9z m60 5 c0 -23 -16
-36 -25 -21 -9 14 1 40 15 40 5 0 10 -9 10 -19z m85 9 c3 -6 -4 -10 -17 -10
-18 0 -20 2 -8 10 19 12 18 12 25 0z m80 0 c4 -6 -5 -10 -20 -10 -15 0 -24 4
-20 10 3 6 12 10 20 10 8 0 17 -4 20 -10z m-825 -19 c0 -5 9 -13 20 -16 23 -7
27 -35 5 -35 -8 0 -19 9 -25 20 -6 11 -17 20 -25 20 -8 0 -15 -9 -15 -20 0
-20 -11 -26 -23 -13 -9 9 33 53 50 53 7 0 13 -4 13 -9z m77 -7 c-3 -3 -12 -4
-19 -1 -8 3 -5 6 6 6 11 1 17 -2 13 -5z m20 -36 c-3 -8 -6 -5 -6 6 -1 11 2 17
5 13 3 -3 4 -12 1 -19z m250 16 c-3 -3 -12 -4 -19 -1 -8 3 -5 6 6 6 11 1 17
-2 13 -5z m60 0 c-3 -3 -12 -4 -19 -1 -8 3 -5 6 6 6 11 1 17 -2 13 -5z m60 0
c-3 -3 -12 -4 -19 -1 -8 3 -5 6 6 6 11 1 17 -2 13 -5z m346 -1 c-7 -2 -19 -2
-25 0 -7 3 -2 5 12 5 14 0 19 -2 13 -5z m-216 -19 c-3 -3 -12 -4 -19 -1 -8 3
-5 6 6 6 11 1 17 -2 13 -5z m60 0 c-3 -3 -12 -4 -19 -1 -8 3 -5 6 6 6 11 1 17
-2 13 -5z m-910 -20 c-3 -3 -12 -4 -19 -1 -8 3 -5 6 6 6 11 1 17 -2 13 -5z
m250 0 c-3 -3 -12 -4 -19 -1 -8 3 -5 6 6 6 11 1 17 -2 13 -5z m80 0 c-3 -3
-12 -4 -19 -1 -8 3 -5 6 6 6 11 1 17 -2 13 -5z m496 -35 c155 0 273 -4 262 -8
-11 -4 -134 -8 -274 -10 -252 -2 -282 2 -280 33 0 7 2 6 6 -1 3 -10 71 -13
286 -14z m-348 -44 c14 -14 25 -32 25 -40 0 -8 5 -15 10 -15 6 0 10 -11 10
-24 0 -20 6 -25 33 -29 24 -3 20 -4 -17 -5 -40 -2 -46 0 -37 12 9 10 7 21 -6
47 -32 59 -41 64 -120 65 -40 1 -76 4 -80 8 -3 3 30 6 75 6 74 0 83 -2 107
-25z m-185 -5 c0 -5 -7 -10 -15 -10 -8 0 -15 5 -15 10 0 6 7 10 15 10 8 0 15
-4 15 -10z m-40 -20 c0 -5 -4 -10 -10 -10 -6 0 -10 -35 -10 -85 0 -50 4 -85
10 -85 6 0 10 -8 10 -17 -1 -16 -2 -16 -15 1 -15 20 -22 157 -9 190 7 18 24
22 24 6z m457 -60 c0 -26 -4 -30 -29 -30 -24 0 -28 4 -28 30 0 26 4 30 28 30
25 0 29 -4 29 -30z m-299 -70 c7 -11 10 -20 6 -20 -7 0 -34 27 -34 34 0 13 16
5 28 -14z m479 -47 c-3 -10 -5 -4 -5 12 0 17 2 24 5 18 2 -7 2 -21 0 -30z
m200 0 c-3 -10 -5 -4 -5 12 0 17 2 24 5 18 2 -7 2 -21 0 -30z m-464 10 c-7 -2
-21 -2 -30 0 -10 3 -4 5 12 5 17 0 24 -2 18 -5z m-670 -51 c29 -28 32 -28 63
4 16 15 35 24 48 22 19 -3 21 -9 21 -58 0 -50 -2 -55 -22 -55 -12 0 -30 -8
-41 -18 -24 -22 -50 -22 -74 0 -11 10 -29 18 -41 18 -19 0 -22 7 -25 44 -2 24
-1 49 1 56 8 18 44 11 70 -13z m695 11 c-26 -2 -71 -2 -100 0 -29 2 -8 3 47 3
55 0 79 -1 53 -3z m369 -20 c-20 -2 -52 -2 -70 0 -17 2 0 4 38 4 39 0 53 -2
32 -4z m-639 -20 c-15 -2 -42 -2 -60 0 -18 2 -6 4 27 4 33 0 48 -2 33 -4z"/>
<path d="M85 1869 c-10 -15 3 -25 16 -12 7 7 7 13 1 17 -6 3 -14 1 -17 -5z"/>
<path d="M160 1760 c0 -5 7 -10 15 -10 8 0 15 5 15 10 0 6 -7 10 -15 10 -8 0
-15 -4 -15 -10z"/>
<path d="M1742 1055 c0 -16 2 -22 5 -12 2 9 2 23 0 30 -3 6 -5 -1 -5 -18z"/>
<path d="M1702 1035 c0 -16 2 -22 5 -12 2 9 2 23 0 30 -3 6 -5 -1 -5 -18z"/>
<path d="M438 638 c-7 -19 2 -38 19 -38 9 0 13 8 11 22 -3 25 -23 35 -30 16z"/>
<path d="M340 2114 c0 -45 20 -54 120 -54 100 0 120 9 120 54 l0 26 -120 0
-120 0 0 -26z m60 -4 c0 -5 -4 -10 -10 -10 -5 0 -10 5 -10 10 0 6 5 10 10 10
6 0 10 -4 10 -10z m150 0 c0 -5 -7 -10 -15 -10 -8 0 -15 5 -15 10 0 6 7 10 15
10 8 0 15 -4 15 -10z"/>
<path d="M2028 583 c-9 -41 0 -48 57 -45 53 4 55 5 55 33 0 28 -1 29 -54 29
-43 0 -55 -4 -58 -17z"/>
<path d="M2007 43 c-13 -12 -7 -43 8 -43 9 0 15 9 15 25 0 24 -10 32 -23 18z"/>
</g>
</svg>
